<?xml version="1.0" encoding="UTF-8"?>
<!DOCTYPE svg PUBLIC "-//W3C//DTD SVG 1.1//EN" "http://www.w3.org/Graphics/SVG/1.1/DTD/svg11.dtd">
<svg version="1.2" width="328.13mm" height="328.13mm" viewBox="0 0 32813 32813" preserveAspectRatio="xMidYMid" fill-rule="evenodd" stroke-width="28.222" stroke-linejoin="round" xmlns="http://www.w3.org/2000/svg" xmlns:ooo="http://xml.openoffice.org/svg/export" xmlns:xlink="http://www.w3.org/1999/xlink" xmlns:presentation="http://sun.com/xmlns/staroffice/presentation" xmlns:smil="http://www.w3.org/2001/SMIL20/" xmlns:anim="urn:oasis:names:tc:opendocument:xmlns:animation:1.0" xml:space="preserve">
 <defs class="ClipPathGroup">
  <clipPath id="presentation_clip_path" clipPathUnits="userSpaceOnUse">
   <rect x="0" y="0" width="32813" height="32813"/>
  </clipPath>
  <clipPath id="presentation_clip_path_shrink" clipPathUnits="userSpaceOnUse">
   <rect x="32" y="32" width="32748" height="32748"/>
  </clipPath>
 </defs>
 <defs class="TextShapeIndex">
  <g ooo:slide="id1" ooo:id-list="id3 id4 id5"/>
 </defs>
 <defs class="EmbeddedBulletChars">
  <g id="bullet-char-template-57356" transform="scale(0.00048828125,-0.00048828125)">
   <path d="M 580,1141 L 1163,571 580,0 -4,571 580,1141 Z"/>
  </g>
  <g id="bullet-char-template-57354" transform="scale(0.00048828125,-0.00048828125)">
   <path d="M 8,1128 L 1137,1128 1137,0 8,0 8,1128 Z"/>
  </g>
  <g id="bullet-char-template-10146" transform="scale(0.00048828125,-0.00048828125)">
   <path d="M 174,0 L 602,739 174,1481 1456,739 174,0 Z M 1358,739 L 309,1346 659,739 1358,739 Z"/>
  </g>
  <g id="bullet-char-template-10132" transform="scale(0.00048828125,-0.00048828125)">
   <path d="M 2015,739 L 1276,0 717,0 1260,543 174,543 174,936 1260,936 717,1481 1274,1481 2015,739 Z"/>
  </g>
  <g id="bullet-char-template-10007" transform="scale(0.00048828125,-0.00048828125)">
   <path d="M 0,-2 C -7,14 -16,27 -25,37 L 356,567 C 262,823 215,952 215,954 215,979 228,992 255,992 264,992 276,990 289,987 310,991 331,999 354,1012 L 381,999 492,748 772,1049 836,1024 860,1049 C 881,1039 901,1025 922,1006 886,937 835,863 770,784 769,783 710,716 594,584 L 774,223 C 774,196 753,168 711,139 L 727,119 C 717,90 699,76 672,76 641,76 570,178 457,381 L 164,-76 C 142,-110 111,-127 72,-127 30,-127 9,-110 8,-76 1,-67 -2,-52 -2,-32 -2,-23 -1,-13 0,-2 Z"/>
  </g>
  <g id="bullet-char-template-10004" transform="scale(0.00048828125,-0.00048828125)">
   <path d="M 285,-33 C 182,-33 111,30 74,156 52,228 41,333 41,471 41,549 55,616 82,672 116,743 169,778 240,778 293,778 328,747 346,684 L 369,508 C 377,444 397,411 428,410 L 1163,1116 C 1174,1127 1196,1133 1229,1133 1271,1133 1292,1118 1292,1087 L 1292,965 C 1292,929 1282,901 1262,881 L 442,47 C 390,-6 338,-33 285,-33 Z"/>
  </g>
  <g id="bullet-char-template-9679" transform="scale(0.00048828125,-0.00048828125)">
   <path d="M 813,0 C 632,0 489,54 383,161 276,268 223,411 223,592 223,773 276,916 383,1023 489,1130 632,1184 813,1184 992,1184 1136,1130 1245,1023 1353,916 1407,772 1407,592 1407,412 1353,268 1245,161 1136,54 992,0 813,0 Z"/>
  </g>
  <g id="bullet-char-template-8226" transform="scale(0.00048828125,-0.00048828125)">
   <path d="M 346,457 C 273,457 209,483 155,535 101,586 74,649 74,723 74,796 101,859 155,911 209,963 273,989 346,989 419,989 480,963 531,910 582,859 608,796 608,723 608,648 583,586 532,535 482,483 420,457 346,457 Z"/>
  </g>
  <g id="bullet-char-template-8211" transform="scale(0.00048828125,-0.00048828125)">
   <path d="M -4,459 L 1135,459 1135,606 -4,606 -4,459 Z"/>
  </g>
  <g id="bullet-char-template-61548" transform="scale(0.00048828125,-0.00048828125)">
   <path d="M 173,740 C 173,903 231,1043 346,1159 462,1274 601,1332 765,1332 928,1332 1067,1274 1183,1159 1299,1043 1357,903 1357,740 1357,577 1299,437 1183,322 1067,206 928,148 765,148 601,148 462,206 346,322 231,437 173,577 173,740 Z"/>
  </g>
 </defs>
 <defs class="TextEmbeddedBitmaps"/>
 <g>
  <g id="id2" class="Master_Slide">
   <g id="bg-id2" class="Background"/>
   <g id="bo-id2" class="BackgroundObjects"/>
  </g>
 </g>
 <g class="SlideGroup">
  <g>
   <g id="container-id1">
    <g id="id1" class="Slide" clip-path="url(#presentation_clip_path)">
     <g class="Page">
      <g class="com.sun.star.drawing.PolyPolygonShape">
       <g id="id3">
        <rect class="BoundingBox" stroke="none" fill="none" x="-1" y="-64" width="32817" height="32817"/>
       </g>
      </g>
      <g class="com.sun.star.drawing.PolyPolygonShape">
       <g id="id4">
        <rect class="BoundingBox" stroke="none" fill="none" x="-6" y="3997" width="31628" height="24694"/>
       </g>
      </g>
      <g class="com.sun.star.drawing.ClosedBezierShape">
       <g id="id5">
        <rect class="BoundingBox" stroke="none" fill="none" x="4626" y="4628" width="23561" height="23558"/>
        <path fill="rgb(36,64,143)" stroke="none" d="M 25076,4629 L 7736,4629 7736,4629 C 7165,4630 6679,4761 6184,5046 5687,5333 5331,5689 5044,6186 4759,6681 4628,7166 4627,7738 L 4627,25076 4627,25076 C 4628,25647 4759,26133 5044,26628 5331,27125 5687,27481 6184,27767 6679,28053 7165,28184 7736,28184 L 25076,28184 C 25647,28184 26133,28053 26628,27767 27125,27481 27481,27125 27768,26628 28053,26133 28184,25647 28185,25076 L 28185,7738 C 28184,7166 28053,6681 27768,6186 27481,5689 27125,5333 26628,5046 26133,4761 25647,4630 25076,4629 Z M 25329,5343 L 20271,10401 C 20260,10411 20252,10421 20244,10435 20231,10457 20225,10480 20225,10506 20225,10508 20225,10509 20225,10511 L 20225,12571 C 22402,10391 24579,8213 26757,6036 26918,6195 27037,6348 27150,6544 27370,6925 27470,7299 27471,7738 L 27471,8609 23487,12592 27471,12592 27471,14127 18701,14127 18701,5343 20228,5343 20228,9326 24212,5343 25076,5343 25329,5343 Z M 8597,5343 L 12602,9348 12602,5343 14136,5343 14136,14123 5341,14123 5341,12599 9371,12599 9318,12542 6851,10076 5341,8555 5341,7738 5341,7485 C 7031,9169 8716,10854 10396,12539 10407,12551 10418,12561 10433,12569 10456,12582 10479,12589 10506,12589 10507,12589 10508,12589 10510,12589 L 12587,12589 12537,12535 6055,6057 C 6214,5895 6368,5776 6565,5662 6939,5446 7305,5347 7736,5343 L 8597,5343 Z M 12559,22413 C 12571,22402 12580,22391 12589,22376 12602,22353 12609,22329 12609,22301 12609,22301 12609,22300 12609,22299 L 12609,20290 12609,20225 C 12609,20197 12569,20258 12555,20275 L 6055,26775 C 5893,26616 5774,26462 5661,26266 5442,25886 5342,25514 5341,25076 L 5341,24258 9328,20258 9368,20215 5341,20215 5341,18688 14133,18688 14133,27471 12609,27471 12609,23448 12552,23505 10264,25793 8582,27471 7736,27471 7526,27471 12559,22413 Z M 24258,27471 L 20282,23505 20225,23452 20225,27471 18697,27471 18697,18692 27471,18692 27471,20218 23487,20218 27471,24201 27471,25076 27471,25301 22416,20258 C 22407,20246 22397,20238 22384,20231 22364,20220 22345,20214 22322,20214 22319,20214 22316,20214 22313,20215 L 20253,20215 26789,26757 C 26630,26919 26477,27037 26280,27151 25899,27371 25526,27471 25086,27471 25082,27471 25079,27471 25076,27471 L 24258,27471 Z"/>
       </g>
      </g>
     </g>
    </g>
   </g>
  </g>
 </g>
</svg>