<?xml version="1.0" encoding="UTF-8"?>
<!DOCTYPE svg PUBLIC "-//W3C//DTD SVG 1.1//EN" "http://www.w3.org/Graphics/SVG/1.1/DTD/svg11.dtd">
<svg version="1.2" width="328.13mm" height="328.13mm" viewBox="0 0 32813 32813" preserveAspectRatio="xMidYMid" fill-rule="evenodd" stroke-width="28.222" stroke-linejoin="round" xmlns="http://www.w3.org/2000/svg" xmlns:ooo="http://xml.openoffice.org/svg/export" xmlns:xlink="http://www.w3.org/1999/xlink" xmlns:presentation="http://sun.com/xmlns/staroffice/presentation" xmlns:smil="http://www.w3.org/2001/SMIL20/" xmlns:anim="urn:oasis:names:tc:opendocument:xmlns:animation:1.0" xml:space="preserve">
 <defs class="ClipPathGroup">
  <clipPath id="presentation_clip_path" clipPathUnits="userSpaceOnUse">
   <rect x="0" y="0" width="32813" height="32813"/>
  </clipPath>
  <clipPath id="presentation_clip_path_shrink" clipPathUnits="userSpaceOnUse">
   <rect x="32" y="32" width="32748" height="32748"/>
  </clipPath>
 </defs>
 <defs class="TextShapeIndex">
  <g ooo:slide="id1" ooo:id-list="id3 id4 id5 id6"/>
 </defs>
 <defs class="EmbeddedBulletChars">
  <g id="bullet-char-template-57356" transform="scale(0.00048828125,-0.00048828125)">
   <path d="M 580,1141 L 1163,571 580,0 -4,571 580,1141 Z"/>
  </g>
  <g id="bullet-char-template-57354" transform="scale(0.00048828125,-0.00048828125)">
   <path d="M 8,1128 L 1137,1128 1137,0 8,0 8,1128 Z"/>
  </g>
  <g id="bullet-char-template-10146" transform="scale(0.00048828125,-0.00048828125)">
   <path d="M 174,0 L 602,739 174,1481 1456,739 174,0 Z M 1358,739 L 309,1346 659,739 1358,739 Z"/>
  </g>
  <g id="bullet-char-template-10132" transform="scale(0.00048828125,-0.00048828125)">
   <path d="M 2015,739 L 1276,0 717,0 1260,543 174,543 174,936 1260,936 717,1481 1274,1481 2015,739 Z"/>
  </g>
  <g id="bullet-char-template-10007" transform="scale(0.00048828125,-0.00048828125)">
   <path d="M 0,-2 C -7,14 -16,27 -25,37 L 356,567 C 262,823 215,952 215,954 215,979 228,992 255,992 264,992 276,990 289,987 310,991 331,999 354,1012 L 381,999 492,748 772,1049 836,1024 860,1049 C 881,1039 901,1025 922,1006 886,937 835,863 770,784 769,783 710,716 594,584 L 774,223 C 774,196 753,168 711,139 L 727,119 C 717,90 699,76 672,76 641,76 570,178 457,381 L 164,-76 C 142,-110 111,-127 72,-127 30,-127 9,-110 8,-76 1,-67 -2,-52 -2,-32 -2,-23 -1,-13 0,-2 Z"/>
  </g>
  <g id="bullet-char-template-10004" transform="scale(0.00048828125,-0.00048828125)">
   <path d="M 285,-33 C 182,-33 111,30 74,156 52,228 41,333 41,471 41,549 55,616 82,672 116,743 169,778 240,778 293,778 328,747 346,684 L 369,508 C 377,444 397,411 428,410 L 1163,1116 C 1174,1127 1196,1133 1229,1133 1271,1133 1292,1118 1292,1087 L 1292,965 C 1292,929 1282,901 1262,881 L 442,47 C 390,-6 338,-33 285,-33 Z"/>
  </g>
  <g id="bullet-char-template-9679" transform="scale(0.00048828125,-0.00048828125)">
   <path d="M 813,0 C 632,0 489,54 383,161 276,268 223,411 223,592 223,773 276,916 383,1023 489,1130 632,1184 813,1184 992,1184 1136,1130 1245,1023 1353,916 1407,772 1407,592 1407,412 1353,268 1245,161 1136,54 992,0 813,0 Z"/>
  </g>
  <g id="bullet-char-template-8226" transform="scale(0.00048828125,-0.00048828125)">
   <path d="M 346,457 C 273,457 209,483 155,535 101,586 74,649 74,723 74,796 101,859 155,911 209,963 273,989 346,989 419,989 480,963 531,910 582,859 608,796 608,723 608,648 583,586 532,535 482,483 420,457 346,457 Z"/>
  </g>
  <g id="bullet-char-template-8211" transform="scale(0.00048828125,-0.00048828125)">
   <path d="M -4,459 L 1135,459 1135,606 -4,606 -4,459 Z"/>
  </g>
  <g id="bullet-char-template-61548" transform="scale(0.00048828125,-0.00048828125)">
   <path d="M 173,740 C 173,903 231,1043 346,1159 462,1274 601,1332 765,1332 928,1332 1067,1274 1183,1159 1299,1043 1357,903 1357,740 1357,577 1299,437 1183,322 1067,206 928,148 765,148 601,148 462,206 346,322 231,437 173,577 173,740 Z"/>
  </g>
 </defs>
 <defs class="TextEmbeddedBitmaps"/>
 <g>
  <g id="id2" class="Master_Slide">
   <g id="bg-id2" class="Background"/>
   <g id="bo-id2" class="BackgroundObjects"/>
  </g>
 </g>
 <g class="SlideGroup">
  <g>
   <g id="container-id1">
    <g id="id1" class="Slide" clip-path="url(#presentation_clip_path)">
     <g class="Page">
      <g class="com.sun.star.drawing.PolyPolygonShape">
       <g id="id3">
        <rect class="BoundingBox" stroke="none" fill="none" x="-1" y="-64" width="32817" height="32817"/>
       </g>
      </g>
      <g class="com.sun.star.drawing.ClosedBezierShape">
       <g id="id4">
        <rect class="BoundingBox" stroke="none" fill="none" x="0" y="-63" width="32816" height="32816"/>
        <path fill="rgb(36,64,143)" stroke="none" d="M 32815,27283 C 32815,30290 30353,32752 27346,32752 L 5469,32752 C 2461,32752 0,30290 0,27283 L 0,5406 C 0,2398 2461,-63 5469,-63 L 27346,-63 C 30353,-63 32815,2398 32815,5406 L 32815,27283 Z"/>
       </g>
      </g>
      <g class="com.sun.star.drawing.PolyPolygonShape">
       <g id="id5">
        <rect class="BoundingBox" stroke="none" fill="none" x="594" y="3998" width="31628" height="24693"/>
       </g>
      </g>
      <g class="com.sun.star.drawing.ClosedBezierShape">
       <g id="id6">
        <rect class="BoundingBox" stroke="none" fill="none" x="4481" y="4732" width="23853" height="23225"/>
        <path fill="rgb(255,255,255)" stroke="none" d="M 28332,4733 L 20909,6540 23661,7433 22868,8204 C 21019,6811 18752,6038 16407,6037 14064,6037 11796,6811 9946,8205 L 9154,7433 11906,6540 4482,4733 4579,5108 6338,11962 7255,9281 8051,10057 C 6619,11858 5825,14063 5822,16344 5825,18626 6619,20832 8051,22633 L 7255,23407 6338,20727 4482,27955 11906,26148 9154,25255 9946,24484 C 11796,25878 14064,26650 16407,26651 18750,26648 21015,25874 22865,24480 L 23661,25255 20909,26148 28332,27955 26476,20727 25558,23407 24766,22635 C 26198,20833 26991,18626 26992,16344 26989,14063 26195,11857 24763,10057 L 25559,9281 26476,11961 28332,4733 Z M 5137,5371 L 10201,6604 8270,7231 9898,8816 10065,8685 C 11861,7274 14099,6504 16407,6503 18715,6503 20953,7274 22750,8685 L 22916,8816 24544,7231 22614,6604 27677,5371 26411,10302 25768,8422 24136,10010 24271,10173 C 25721,11921 26513,14099 26516,16345 26516,18592 25724,20771 24275,22520 L 24140,22682 25768,24267 26411,22388 27677,27318 22614,26085 24544,25458 22912,23870 22746,24001 C 20951,25412 18715,26185 16407,26188 14099,26188 11861,25415 10065,24004 L 9898,23873 8270,25458 10201,26085 5137,27318 6404,22388 7047,24267 8678,22679 8544,22516 C 7093,20769 6301,18590 6298,16344 6301,14098 7094,11921 8544,10173 L 8678,10010 7047,8421 6404,10302 5137,5371 Z M 12952,10462 C 11679,11545 11520,13403 11520,13403 11520,13403 11520,14177 11679,14952 11838,15726 10246,16500 10246,16964 10246,17429 11201,17429 11201,17894 11201,18358 11042,18358 11042,18512 11042,18667 11361,18667 11361,18822 11361,18977 11201,19286 11201,19286 11201,19286 11725,19654 11679,20060 11633,20468 11361,20681 11838,21144 12315,21609 13908,20990 14543,21454 15180,21919 15499,23312 15499,23312 L 21069,23312 C 21069,23312 20115,21299 20274,20216 20433,19132 21228,17894 21228,17894 21228,17894 22343,16500 22502,15571 22662,14643 22502,13867 22343,13249 22184,12629 21706,11235 20274,10307 18841,9378 16453,9378 16453,9378 16453,9378 14226,9378 12952,10462 Z"/>
       </g>
      </g>
     </g>
    </g>
   </g>
  </g>
 </g>
</svg>