<?xml version="1.0" encoding="UTF-8"?>
<!DOCTYPE svg PUBLIC "-//W3C//DTD SVG 1.1//EN" "http://www.w3.org/Graphics/SVG/1.1/DTD/svg11.dtd">
<svg version="1.2" width="328.13mm" height="328.13mm" viewBox="0 0 32813 32813" preserveAspectRatio="xMidYMid" fill-rule="evenodd" stroke-width="28.222" stroke-linejoin="round" xmlns="http://www.w3.org/2000/svg" xmlns:ooo="http://xml.openoffice.org/svg/export" xmlns:xlink="http://www.w3.org/1999/xlink" xmlns:presentation="http://sun.com/xmlns/staroffice/presentation" xmlns:smil="http://www.w3.org/2001/SMIL20/" xmlns:anim="urn:oasis:names:tc:opendocument:xmlns:animation:1.0" xml:space="preserve">
 <defs class="ClipPathGroup">
  <clipPath id="presentation_clip_path" clipPathUnits="userSpaceOnUse">
   <rect x="0" y="0" width="32813" height="32813"/>
  </clipPath>
  <clipPath id="presentation_clip_path_shrink" clipPathUnits="userSpaceOnUse">
   <rect x="32" y="32" width="32748" height="32748"/>
  </clipPath>
 </defs>
 <defs class="TextShapeIndex">
  <g ooo:slide="id1" ooo:id-list="id3 id4 id5 id6 id7 id8 id9 id10 id11 id12 id13 id14 id15 id16 id17 id18 id19 id20 id21 id22 id23 id24 id25 id26 id27 id28 id29 id30 id31 id32 id33 id34 id35 id36 id37 id38 id39 id40 id41"/>
 </defs>
 <defs class="EmbeddedBulletChars">
  <g id="bullet-char-template-57356" transform="scale(0.00048828125,-0.00048828125)">
   <path d="M 580,1141 L 1163,571 580,0 -4,571 580,1141 Z"/>
  </g>
  <g id="bullet-char-template-57354" transform="scale(0.00048828125,-0.00048828125)">
   <path d="M 8,1128 L 1137,1128 1137,0 8,0 8,1128 Z"/>
  </g>
  <g id="bullet-char-template-10146" transform="scale(0.00048828125,-0.00048828125)">
   <path d="M 174,0 L 602,739 174,1481 1456,739 174,0 Z M 1358,739 L 309,1346 659,739 1358,739 Z"/>
  </g>
  <g id="bullet-char-template-10132" transform="scale(0.00048828125,-0.00048828125)">
   <path d="M 2015,739 L 1276,0 717,0 1260,543 174,543 174,936 1260,936 717,1481 1274,1481 2015,739 Z"/>
  </g>
  <g id="bullet-char-template-10007" transform="scale(0.00048828125,-0.00048828125)">
   <path d="M 0,-2 C -7,14 -16,27 -25,37 L 356,567 C 262,823 215,952 215,954 215,979 228,992 255,992 264,992 276,990 289,987 310,991 331,999 354,1012 L 381,999 492,748 772,1049 836,1024 860,1049 C 881,1039 901,1025 922,1006 886,937 835,863 770,784 769,783 710,716 594,584 L 774,223 C 774,196 753,168 711,139 L 727,119 C 717,90 699,76 672,76 641,76 570,178 457,381 L 164,-76 C 142,-110 111,-127 72,-127 30,-127 9,-110 8,-76 1,-67 -2,-52 -2,-32 -2,-23 -1,-13 0,-2 Z"/>
  </g>
  <g id="bullet-char-template-10004" transform="scale(0.00048828125,-0.00048828125)">
   <path d="M 285,-33 C 182,-33 111,30 74,156 52,228 41,333 41,471 41,549 55,616 82,672 116,743 169,778 240,778 293,778 328,747 346,684 L 369,508 C 377,444 397,411 428,410 L 1163,1116 C 1174,1127 1196,1133 1229,1133 1271,1133 1292,1118 1292,1087 L 1292,965 C 1292,929 1282,901 1262,881 L 442,47 C 390,-6 338,-33 285,-33 Z"/>
  </g>
  <g id="bullet-char-template-9679" transform="scale(0.00048828125,-0.00048828125)">
   <path d="M 813,0 C 632,0 489,54 383,161 276,268 223,411 223,592 223,773 276,916 383,1023 489,1130 632,1184 813,1184 992,1184 1136,1130 1245,1023 1353,916 1407,772 1407,592 1407,412 1353,268 1245,161 1136,54 992,0 813,0 Z"/>
  </g>
  <g id="bullet-char-template-8226" transform="scale(0.00048828125,-0.00048828125)">
   <path d="M 346,457 C 273,457 209,483 155,535 101,586 74,649 74,723 74,796 101,859 155,911 209,963 273,989 346,989 419,989 480,963 531,910 582,859 608,796 608,723 608,648 583,586 532,535 482,483 420,457 346,457 Z"/>
  </g>
  <g id="bullet-char-template-8211" transform="scale(0.00048828125,-0.00048828125)">
   <path d="M -4,459 L 1135,459 1135,606 -4,606 -4,459 Z"/>
  </g>
  <g id="bullet-char-template-61548" transform="scale(0.00048828125,-0.00048828125)">
   <path d="M 173,740 C 173,903 231,1043 346,1159 462,1274 601,1332 765,1332 928,1332 1067,1274 1183,1159 1299,1043 1357,903 1357,740 1357,577 1299,437 1183,322 1067,206 928,148 765,148 601,148 462,206 346,322 231,437 173,577 173,740 Z"/>
  </g>
 </defs>
 <defs class="TextEmbeddedBitmaps"/>
 <g>
  <g id="id2" class="Master_Slide">
   <g id="bg-id2" class="Background"/>
   <g id="bo-id2" class="BackgroundObjects"/>
  </g>
 </g>
 <g class="SlideGroup">
  <g>
   <g id="container-id1">
    <g id="id1" class="Slide" clip-path="url(#presentation_clip_path)">
     <g class="Page">
      <g class="com.sun.star.drawing.PolyPolygonShape">
       <g id="id3">
        <rect class="BoundingBox" stroke="none" fill="none" x="-1" y="-64" width="32817" height="32817"/>
       </g>
      </g>
      <g class="com.sun.star.drawing.ClosedBezierShape">
       <g id="id4">
        <rect class="BoundingBox" stroke="none" fill="none" x="0" y="-63" width="32816" height="32816"/>
        <path fill="rgb(36,64,143)" stroke="none" d="M 32815,27283 C 32815,30290 30353,32752 27346,32752 L 5469,32752 C 2461,32752 0,30290 0,27283 L 0,5406 C 0,2398 2461,-63 5469,-63 L 27346,-63 C 30353,-63 32815,2398 32815,5406 L 32815,27283 Z"/>
       </g>
      </g>
      <g class="com.sun.star.drawing.PolyPolygonShape">
       <g id="id5">
        <rect class="BoundingBox" stroke="none" fill="none" x="594" y="3998" width="31628" height="24693"/>
       </g>
      </g>
      <g class="com.sun.star.drawing.ClosedBezierShape">
       <g id="id6">
        <rect class="BoundingBox" stroke="none" fill="none" x="16767" y="9390" width="1296" height="3192"/>
        <path fill="rgb(255,255,255)" stroke="none" d="M 17442,12581 L 17387,12581 C 17045,12581 16767,12304 16767,11962 L 16767,10010 C 16767,9668 17045,9391 17387,9391 L 17442,9391 C 17783,9391 18061,9668 18061,10010 L 18061,11962 C 18061,12304 17783,12581 17442,12581 Z"/>
       </g>
      </g>
      <g class="com.sun.star.drawing.ClosedBezierShape">
       <g id="id7">
        <rect class="BoundingBox" stroke="none" fill="none" x="21175" y="9390" width="1296" height="3192"/>
        <path fill="rgb(255,255,255)" stroke="none" d="M 21850,12581 L 21794,12581 C 21453,12581 21175,12304 21175,11962 L 21175,10010 C 21175,9668 21453,9391 21794,9391 L 21850,9391 C 22191,9391 22469,9668 22469,10010 L 22469,11962 C 22469,12304 22191,12581 21850,12581 Z"/>
       </g>
      </g>
      <g class="com.sun.star.drawing.ClosedBezierShape">
       <g id="id8">
        <rect class="BoundingBox" stroke="none" fill="none" x="18236" y="9133" width="1296" height="3193"/>
        <path fill="rgb(255,255,255)" stroke="none" d="M 18911,12325 L 18855,12325 C 18514,12325 18236,12047 18236,11706 L 18236,9753 C 18236,9412 18514,9134 18855,9134 L 18911,9134 C 19252,9134 19530,9412 19530,9753 L 19530,11706 C 19530,12047 19252,12325 18911,12325 Z"/>
       </g>
      </g>
      <g class="com.sun.star.drawing.ClosedBezierShape">
       <g id="id9">
        <rect class="BoundingBox" stroke="none" fill="none" x="19707" y="9133" width="1296" height="3193"/>
        <path fill="rgb(255,255,255)" stroke="none" d="M 20382,12325 L 20326,12325 C 19985,12325 19707,12047 19707,11706 L 19707,9753 C 19707,9412 19985,9134 20326,9134 L 20382,9134 C 20723,9134 21001,9412 21001,9753 L 21001,11706 C 21001,12047 20720,12325 20382,12325 Z"/>
       </g>
      </g>
      <g class="com.sun.star.drawing.ClosedBezierShape">
       <g id="id10">
        <rect class="BoundingBox" stroke="none" fill="none" x="16767" y="12578" width="5704" height="3634"/>
        <path fill="rgb(255,255,255)" stroke="none" d="M 20731,16211 L 18506,16211 C 17551,16211 16767,15428 16767,14473 L 16767,14317 C 16767,13362 17551,12579 18506,12579 L 20731,12579 C 21686,12579 22469,13362 22469,14317 L 22469,14473 C 22469,15431 21689,16211 20731,16211 Z"/>
       </g>
      </g>
      <g class="com.sun.star.drawing.ClosedBezierShape">
       <g id="id11">
        <rect class="BoundingBox" stroke="none" fill="none" x="22657" y="13075" width="494" height="841"/>
        <path fill="rgb(255,255,255)" stroke="none" d="M 23149,13915 L 22657,13915 22657,13076 C 22892,13301 23064,13590 23149,13915 Z"/>
       </g>
      </g>
      <g class="com.sun.star.drawing.ClosedBezierShape">
       <g id="id12">
        <rect class="BoundingBox" stroke="none" fill="none" x="17503" y="12580" width="5704" height="3632"/>
        <path fill="rgb(255,255,255)" stroke="none" d="M 23205,14351 L 23205,14441 C 23205,15415 22408,16211 21435,16211 L 19273,16211 C 18299,16211 17503,15415 17503,14441 L 17503,14351 C 17503,13378 18299,12581 19273,12581 L 21435,12581 C 21821,12581 22178,12706 22472,12917 L 22472,14087 23186,14087 C 23197,14174 23205,14262 23205,14351 Z"/>
       </g>
      </g>
      <g class="com.sun.star.drawing.PolyPolygonShape">
       <g id="id13">
        <rect class="BoundingBox" stroke="none" fill="none" x="16767" y="11541" width="5704" height="2901"/>
        <path fill="rgb(255,255,255)" stroke="none" d="M 19618,14441 L 16767,14441 16767,11542 22469,11542 22469,14441 19618,14441 Z"/>
       </g>
      </g>
      <g class="com.sun.star.drawing.PolyPolygonShape">
       <g id="id14">
        <rect class="BoundingBox" stroke="none" fill="none" x="22657" y="10728" width="4992" height="3188"/>
        <path fill="rgb(255,255,255)" stroke="none" d="M 22657,10729 L 22657,10904 22657,13915 27496,13915 27647,13915 27647,10729 22657,10729 Z"/>
       </g>
      </g>
      <g class="com.sun.star.drawing.ClosedBezierShape">
       <g id="id15">
        <rect class="BoundingBox" stroke="none" fill="none" x="9724" y="14234" width="3193" height="1296"/>
        <path fill="rgb(255,255,255)" stroke="none" d="M 12916,14854 L 12916,14910 C 12916,15251 12638,15529 12297,15529 L 10345,15529 C 10003,15529 9725,15251 9725,14910 L 9725,14854 C 9725,14513 10003,14235 10345,14235 L 12297,14235 C 12636,14235 12916,14513 12916,14854 Z"/>
       </g>
      </g>
      <g class="com.sun.star.drawing.ClosedBezierShape">
       <g id="id16">
        <rect class="BoundingBox" stroke="none" fill="none" x="9724" y="9824" width="3193" height="1295"/>
        <path fill="rgb(255,255,255)" stroke="none" d="M 12916,10444 L 12916,10499 C 12916,10841 12638,11118 12297,11118 L 10345,11118 C 10003,11118 9725,10841 9725,10499 L 9725,10444 C 9725,10102 10003,9825 10345,9825 L 12297,9825 C 12636,9825 12916,10105 12916,10444 Z"/>
       </g>
      </g>
      <g class="com.sun.star.drawing.ClosedBezierShape">
       <g id="id17">
        <rect class="BoundingBox" stroke="none" fill="none" x="9468" y="12763" width="3193" height="1296"/>
        <path fill="rgb(255,255,255)" stroke="none" d="M 12660,13383 L 12660,13439 C 12660,13780 12382,14058 12041,14058 L 10088,14058 C 9747,14058 9469,13780 9469,13439 L 9469,13383 C 9469,13042 9747,12764 10088,12764 L 12041,12764 C 12382,12764 12660,13044 12660,13383 Z"/>
       </g>
      </g>
      <g class="com.sun.star.drawing.ClosedBezierShape">
       <g id="id18">
        <rect class="BoundingBox" stroke="none" fill="none" x="9468" y="11295" width="3193" height="1295"/>
        <path fill="rgb(255,255,255)" stroke="none" d="M 12660,11915 L 12660,11970 C 12660,12312 12382,12589 12041,12589 L 10088,12589 C 9747,12589 9469,12312 9469,11970 L 9469,11915 C 9469,11573 9747,11296 10088,11296 L 12041,11296 C 12382,11296 12660,11573 12660,11915 Z"/>
       </g>
      </g>
      <g class="com.sun.star.drawing.ClosedBezierShape">
       <g id="id19">
        <rect class="BoundingBox" stroke="none" fill="none" x="12913" y="9824" width="3634" height="5703"/>
        <path fill="rgb(255,255,255)" stroke="none" d="M 16545,11563 L 16545,13788 C 16545,14743 15763,15526 14808,15526 L 14652,15526 C 13697,15526 12914,14743 12914,13788 L 12914,11563 C 12914,10608 13697,9825 14652,9825 L 14808,9825 C 15766,9825 16545,10608 16545,11563 Z"/>
       </g>
      </g>
      <g class="com.sun.star.drawing.ClosedBezierShape">
       <g id="id20">
        <rect class="BoundingBox" stroke="none" fill="none" x="13407" y="9146" width="841" height="494"/>
        <path fill="rgb(255,255,255)" stroke="none" d="M 14247,9147 L 14247,9639 13408,9639 C 13633,9404 13924,9229 14247,9147 Z"/>
       </g>
      </g>
      <g class="com.sun.star.drawing.ClosedBezierShape">
       <g id="id21">
        <rect class="BoundingBox" stroke="none" fill="none" x="12915" y="9091" width="3632" height="5703"/>
        <path fill="rgb(255,255,255)" stroke="none" d="M 16545,10862 L 16545,13023 C 16545,13997 15750,14793 14776,14793 L 14686,14793 C 13713,14793 12916,13997 12916,13023 L 12916,10862 C 12916,10475 13041,10118 13252,9827 L 14422,9827 14422,9113 C 14509,9100 14596,9092 14686,9092 L 14776,9092 C 15750,9092 16545,9888 16545,10862 Z"/>
       </g>
      </g>
      <g class="com.sun.star.drawing.PolyPolygonShape">
       <g id="id22">
        <rect class="BoundingBox" stroke="none" fill="none" x="11873" y="9824" width="2902" height="5703"/>
        <path fill="rgb(255,255,255)" stroke="none" d="M 13324,15526 L 11874,15526 11874,9825 14774,9825 14774,15526 13324,15526 Z"/>
       </g>
      </g>
      <g class="com.sun.star.drawing.PolyPolygonShape">
       <g id="id23">
        <rect class="BoundingBox" stroke="none" fill="none" x="11063" y="4799" width="3185" height="4841"/>
        <path fill="rgb(255,255,255)" stroke="none" d="M 11064,4800 L 11064,9639 11239,9639 14247,9639 14247,4948 14247,4800 11064,4800 Z"/>
       </g>
      </g>
      <g class="com.sun.star.drawing.ClosedBezierShape">
       <g id="id24">
        <rect class="BoundingBox" stroke="none" fill="none" x="14831" y="19372" width="1296" height="3193"/>
        <path fill="rgb(255,255,255)" stroke="none" d="M 15451,19372 L 15506,19372 C 15848,19372 16126,19650 16126,19991 L 16126,21944 C 16126,22285 15848,22563 15506,22563 L 15451,22563 C 15110,22563 14832,22285 14832,21944 L 14832,19991 C 14832,19653 15112,19372 15451,19372 Z"/>
       </g>
      </g>
      <g class="com.sun.star.drawing.ClosedBezierShape">
       <g id="id25">
        <rect class="BoundingBox" stroke="none" fill="none" x="10423" y="19372" width="1296" height="3193"/>
        <path fill="rgb(255,255,255)" stroke="none" d="M 11043,19372 L 11099,19372 C 11440,19372 11718,19650 11718,19991 L 11718,21944 C 11718,22285 11440,22563 11099,22563 L 11043,22563 C 10702,22563 10424,22285 10424,21944 L 10424,19991 C 10424,19653 10702,19372 11043,19372 Z"/>
       </g>
      </g>
      <g class="com.sun.star.drawing.ClosedBezierShape">
       <g id="id26">
        <rect class="BoundingBox" stroke="none" fill="none" x="13362" y="19629" width="1296" height="3193"/>
        <path fill="rgb(255,255,255)" stroke="none" d="M 13982,19629 L 14038,19629 C 14379,19629 14657,19907 14657,20248 L 14657,22201 C 14657,22542 14379,22820 14038,22820 L 13982,22820 C 13641,22820 13363,22542 13363,22201 L 13363,20248 C 13363,19909 13641,19629 13982,19629 Z"/>
       </g>
      </g>
      <g class="com.sun.star.drawing.ClosedBezierShape">
       <g id="id27">
        <rect class="BoundingBox" stroke="none" fill="none" x="11891" y="19629" width="1296" height="3193"/>
        <path fill="rgb(255,255,255)" stroke="none" d="M 12511,19629 L 12567,19629 C 12908,19629 13186,19907 13186,20248 L 13186,22201 C 13186,22542 12908,22820 12567,22820 L 12511,22820 C 12170,22820 11892,22542 11892,22201 L 11892,20248 C 11892,19909 12173,19629 12511,19629 Z"/>
       </g>
      </g>
      <g class="com.sun.star.drawing.ClosedBezierShape">
       <g id="id28">
        <rect class="BoundingBox" stroke="none" fill="none" x="10423" y="15742" width="5704" height="3635"/>
        <path fill="rgb(255,255,255)" stroke="none" d="M 12162,15743 L 14387,15743 C 15342,15743 16126,16526 16126,17481 L 16126,17638 C 16126,18593 15342,19375 14387,19375 L 12162,19375 C 11207,19375 10424,18593 10424,17638 L 10424,17481 C 10424,16526 11207,15743 12162,15743 Z"/>
       </g>
      </g>
      <g class="com.sun.star.drawing.ClosedBezierShape">
       <g id="id29">
        <rect class="BoundingBox" stroke="none" fill="none" x="9743" y="18041" width="494" height="841"/>
        <path fill="rgb(255,255,255)" stroke="none" d="M 9744,18042 L 10236,18042 10236,18880 C 10001,18656 9829,18365 9744,18042 Z"/>
       </g>
      </g>
      <g class="com.sun.star.drawing.ClosedBezierShape">
       <g id="id30">
        <rect class="BoundingBox" stroke="none" fill="none" x="9687" y="15742" width="5704" height="3632"/>
        <path fill="rgb(255,255,255)" stroke="none" d="M 15390,17513 L 15390,17603 C 15390,18577 14594,19372 13620,19372 L 11458,19372 C 11072,19372 10715,19248 10424,19036 L 10424,17868 9710,17868 C 9696,17780 9688,17693 9688,17603 L 9688,17513 C 9688,16540 10485,15743 11458,15743 L 13620,15743 C 14594,15743 15390,16540 15390,17513 Z"/>
       </g>
      </g>
      <g class="com.sun.star.drawing.PolyPolygonShape">
       <g id="id31">
        <rect class="BoundingBox" stroke="none" fill="none" x="10423" y="17512" width="5704" height="2902"/>
        <path fill="rgb(255,255,255)" stroke="none" d="M 13275,20412 L 10424,20412 10424,17513 16126,17513 16126,20412 13275,20412 Z"/>
       </g>
      </g>
      <g class="com.sun.star.drawing.ClosedBezierShape">
       <g id="id32">
        <rect class="BoundingBox" stroke="none" fill="none" x="19971" y="16427" width="3193" height="1296"/>
        <path fill="rgb(255,255,255)" stroke="none" d="M 19971,17103 L 19971,17048 C 19971,16706 20249,16428 20591,16428 L 22543,16428 C 22884,16428 23162,16706 23162,17048 L 23162,17103 C 23162,17444 22884,17722 22543,17722 L 20591,17722 C 20249,17722 19971,17444 19971,17103 Z"/>
       </g>
      </g>
      <g class="com.sun.star.drawing.ClosedBezierShape">
       <g id="id33">
        <rect class="BoundingBox" stroke="none" fill="none" x="19971" y="20835" width="3193" height="1296"/>
        <path fill="rgb(255,255,255)" stroke="none" d="M 19971,21510 L 19971,21454 C 19971,21113 20249,20835 20591,20835 L 22543,20835 C 22884,20835 23162,21113 23162,21454 L 23162,21510 C 23162,21851 22884,22129 22543,22129 L 20591,22129 C 20249,22129 19971,21851 19971,21510 Z"/>
       </g>
      </g>
      <g class="com.sun.star.drawing.ClosedBezierShape">
       <g id="id34">
        <rect class="BoundingBox" stroke="none" fill="none" x="20228" y="17896" width="3193" height="1296"/>
        <path fill="rgb(255,255,255)" stroke="none" d="M 20228,18572 L 20228,18516 C 20228,18175 20506,17897 20847,17897 L 22800,17897 C 23141,17897 23419,18175 23419,18516 L 23419,18572 C 23419,18912 23141,19190 22800,19190 L 20847,19190 C 20506,19190 20228,18912 20228,18572 Z"/>
       </g>
      </g>
      <g class="com.sun.star.drawing.ClosedBezierShape">
       <g id="id35">
        <rect class="BoundingBox" stroke="none" fill="none" x="20228" y="19367" width="3193" height="1296"/>
        <path fill="rgb(255,255,255)" stroke="none" d="M 20228,20042 L 20228,19986 C 20228,19645 20506,19367 20847,19367 L 22800,19367 C 23141,19367 23419,19645 23419,19986 L 23419,20042 C 23419,20383 23141,20661 22800,20661 L 20847,20661 C 20506,20661 20228,20380 20228,20042 Z"/>
       </g>
      </g>
      <g class="com.sun.star.drawing.ClosedBezierShape">
       <g id="id36">
        <rect class="BoundingBox" stroke="none" fill="none" x="16341" y="16427" width="3635" height="5704"/>
        <path fill="rgb(255,255,255)" stroke="none" d="M 16342,20391 L 16342,18167 C 16342,17212 17125,16428 18080,16428 L 18236,16428 C 19191,16428 19974,17212 19974,18167 L 19974,20391 C 19974,21346 19191,22129 18236,22129 L 18080,22129 C 17122,22129 16342,21346 16342,20391 Z"/>
       </g>
      </g>
      <g class="com.sun.star.drawing.ClosedBezierShape">
       <g id="id37">
        <rect class="BoundingBox" stroke="none" fill="none" x="18638" y="22317" width="841" height="494"/>
        <path fill="rgb(255,255,255)" stroke="none" d="M 18638,22809 L 18638,22317 19477,22317 C 19252,22552 18963,22724 18638,22809 Z"/>
       </g>
      </g>
      <g class="com.sun.star.drawing.ClosedBezierShape">
       <g id="id38">
        <rect class="BoundingBox" stroke="none" fill="none" x="16341" y="17163" width="3632" height="5704"/>
        <path fill="rgb(255,255,255)" stroke="none" d="M 19971,18933 L 19971,21095 C 19971,21481 19847,21838 19635,22129 L 18466,22129 18466,22219 18466,22219 18466,22843 C 18379,22857 18291,22865 18201,22865 L 18111,22865 C 17138,22865 16342,22068 16342,21095 L 16342,18933 C 16342,17960 17138,17164 18111,17164 L 18201,17164 C 19175,17164 19971,17960 19971,18933 Z"/>
       </g>
      </g>
      <g class="com.sun.star.drawing.PolyPolygonShape">
       <g id="id39">
        <rect class="BoundingBox" stroke="none" fill="none" x="18111" y="16427" width="2902" height="5704"/>
        <path fill="rgb(255,255,255)" stroke="none" d="M 19561,22129 L 18111,22129 18111,16428 21011,16428 21011,22129 19561,22129 Z"/>
       </g>
      </g>
      <g class="com.sun.star.drawing.PolyPolygonShape">
       <g id="id40">
        <rect class="BoundingBox" stroke="none" fill="none" x="18638" y="22317" width="3187" height="4838"/>
        <path fill="rgb(255,255,255)" stroke="none" d="M 21649,22317 L 18638,22317 18638,27008 18638,27153 21823,27153 21823,22317 21649,22317 Z"/>
       </g>
      </g>
      <g class="com.sun.star.drawing.PolyPolygonShape">
       <g id="id41">
        <rect class="BoundingBox" stroke="none" fill="none" x="5399" y="18041" width="4838" height="3185"/>
        <path fill="rgb(255,255,255)" stroke="none" d="M 5548,18042 L 5400,18042 5400,21224 10236,21224 10236,21050 10236,18042 5548,18042 Z"/>
       </g>
      </g>
     </g>
    </g>
   </g>
  </g>
 </g>
</svg>